<svg width="74" height="74" viewBox="0 0 74 74" fill="none" xmlns="http://www.w3.org/2000/svg">
<rect width="74" height="74" fill="white"/>
<path d="M14.5309 52C14.4215 52 14.3042 51.9297 14.1791 51.7891L4.53945 39.5578C4.17982 39.0892 4 38.2691 4 37.0975V35.9025C4 34.7309 4.17982 33.9108 4.53945 33.4422L14.1791 21.2109C14.2416 21.1172 14.2964 21.0703 14.3433 21.0703C14.4058 21.0234 14.4684 21 14.5309 21C14.8436 21 15 21.6092 15 22.8277V23.8118C15 24.421 14.9531 24.9365 14.8593 25.3583C14.7811 25.7332 14.6482 26.0378 14.4606 26.2721L6.11087 36.4649L14.4606 46.7279C14.6482 46.9622 14.7811 47.2903 14.8593 47.712C14.9531 48.0869 15 48.579 15 49.1882V50.1723C15 51.3908 14.8436 52 14.5309 52Z" fill="black"/>
<path d="M59.4691 52C59.5785 52 59.6958 51.9297 59.8209 51.7891L69.4606 39.5578C69.8202 39.0892 70 38.2691 70 37.0975V35.9025C70 34.7309 69.8202 33.9108 69.4606 33.4422L59.8209 21.2109C59.7584 21.1172 59.7036 21.0703 59.6567 21.0703C59.5942 21.0234 59.5316 21 59.4691 21C59.1564 21 59 21.6092 59 22.8277V23.8118C59 24.421 59.0469 24.9365 59.1407 25.3583C59.2189 25.7332 59.3518 26.0378 59.5394 26.2721L67.8891 36.4649L59.5394 46.7279C59.3518 46.9622 59.2189 47.2903 59.1407 47.712C59.0469 48.0869 59 48.579 59 49.1882V50.1723C59 51.3908 59.1564 52 59.4691 52Z" fill="black"/>
<path fill-rule="evenodd" clip-rule="evenodd" d="M43.4743 44.077C44.2602 44.3389 44.685 45.1884 44.423 45.9743C43.5441 48.611 40.896 49.6331 38.6801 50.0156C36.3668 50.4149 33.8644 50.2481 32.2534 49.9796C31.4362 49.8434 30.8842 49.0705 31.0204 48.2534C31.1566 47.4362 31.9294 46.8842 32.7466 47.0204C34.1356 47.2519 36.2832 47.385 38.1698 47.0593C40.154 46.7168 41.2559 45.989 41.577 45.0256C41.8389 44.2397 42.6884 43.815 43.4743 44.077Z" fill="black"/>
<ellipse cx="26" cy="35.5" rx="6" ry="7.5" fill="black"/>
<ellipse cx="27.2857" cy="33.8929" rx="3" ry="3.75" fill="white"/>
<path fill-rule="evenodd" clip-rule="evenodd" d="M45.9455 35.452C47.0726 34.3633 48.7146 33 51 33C51.8284 33 52.5 32.8284 52.5 32C52.5 31.1716 51.8284 31 51 31C44.4397 31 41.6278 35.6087 41.0384 38.1627C40.9031 38.749 41.1313 39.3595 41.618 39.7133C42.1047 40.0671 42.7558 40.0958 43.2718 39.7862C44.4655 39.07 45.7411 38.4547 47.1032 38.3033C48.4027 38.1589 50.0482 38.1237 51.75 39.4C52.4127 39.8971 53.0029 40.1627 53.5 39.5C53.6425 39.31 53.5 38.1389 53 37.5C51.2 35.2 48.8473 35.0911 46.7719 35.3217C46.4907 35.3529 46.2151 35.3971 45.9455 35.452Z" fill="black"/>
</svg>
